<?xml version="1.0" standalone="no"?>
<!DOCTYPE svg PUBLIC "-//W3C//DTD SVG 20010904//EN"
 "http://www.w3.org/TR/2001/REC-SVG-20010904/DTD/svg10.dtd">
<svg version="1.0" xmlns="http://www.w3.org/2000/svg"
 width="256.000000pt" height="256.000000pt" viewBox="0 0 256.000000 256.000000"
 preserveAspectRatio="xMidYMid meet">
<metadata>
Created by potrace 1.11, written by Peter Selinger 2001-2013
</metadata>
<g transform="translate(0.000000,256.000000) scale(0.100000,-0.100000)"
fill="#000000" stroke="none">
<path d="M1085 2545 c-38 -7 -83 -16 -100 -19 -57 -11 -200 -63 -275 -101
-354 -178 -601 -500 -686 -897 -19 -85 -26 -345 -12 -433 66 -421 322 -771
703 -962 80 -41 239 -96 305 -107 19 -3 46 -8 60 -12 14 -3 90 -7 170 -9 135
-3 244 7 340 32 l35 9 3 291 2 290 -87 -32 c-127 -48 -233 -61 -355 -45 -85
12 -93 14 -179 47 -226 88 -393 286 -450 533 -18 79 -15 241 6 325 73 287 315
510 600 553 282 42 565 -83 726 -320 41 -59 91 -170 103 -224 4 -16 9 -40 13
-54 3 -14 7 -331 9 -705 1 -374 3 -686 3 -692 1 -10 62 -13 272 -13 l270 0 -4
733 c-3 702 -4 736 -24 817 -132 536 -525 905 -1063 997 -67 12 -320 10 -385
-2z"/>
<path d="M1215 1623 c-11 -3 -26 -12 -32 -21 -8 -9 -13 -11 -13 -4 0 17 -16
15 -34 -4 -9 -8 -16 -13 -16 -9 0 15 -91 -61 -118 -99 -61 -85 -89 -236 -52
-281 8 -11 10 -16 3 -12 -9 6 -9 -1 -3 -24 17 -60 99 -169 127 -169 7 0 13 -4
13 -9 0 -8 37 -24 53 -22 4 1 7 -3 7 -8 0 -8 16 -13 88 -27 15 -3 21 -1 17 6
-3 5 -1 10 4 10 6 0 11 -4 11 -9 0 -16 113 1 136 20 6 5 15 5 19 1 5 -4 6 0 3
9 -4 9 -1 16 8 16 7 0 10 -5 6 -11 -3 -6 5 -3 18 6 14 9 24 22 22 28 -1 6 3 8
9 4 14 -9 71 54 62 69 -3 5 -1 7 4 4 13 -8 50 59 54 99 2 16 6 34 9 39 5 8 6
75 1 130 0 8 -9 15 -18 16 -15 0 -15 2 2 9 16 7 17 9 3 9 -9 1 -20 5 -23 11
-4 6 1 7 10 3 16 -5 16 -4 1 26 -10 18 -21 29 -28 25 -7 -5 -8 -2 -3 6 5 8 1
18 -10 27 -11 7 -16 13 -11 13 4 0 -4 11 -18 25 -27 27 -42 33 -30 13 4 -8 3
-10 -2 -5 -5 5 -9 14 -9 20 0 14 -83 59 -95 52 -5 -3 -12 0 -15 6 -4 5 -13 8
-21 5 -7 -3 -16 -2 -18 3 -8 13 -70 11 -78 -2 -6 -9 -8 -9 -8 1 0 12 -2 13
-35 5z m75 -7 c0 -2 -7 -9 -15 -16 -13 -11 -14 -10 -9 4 5 14 24 23 24 12z
m-67 -20 c4 -11 1 -13 -10 -9 -12 5 -14 3 -8 -7 5 -9 4 -11 -4 -6 -9 6 -9 11
0 22 14 17 16 17 22 0z m117 -1 c11 -13 10 -14 -5 -9 -14 6 -16 4 -10 -7 5 -8
4 -11 0 -6 -12 10 -15 37 -5 37 4 0 13 -7 20 -15z m21 -32 c-12 -20 -14 -14
-5 12 4 9 9 14 11 11 3 -2 0 -13 -6 -23z m84 7 c3 -6 -1 -7 -9 -4 -18 7 -21
14 -7 14 6 0 13 -4 16 -10z m-311 -8 c3 -5 -1 -9 -9 -9 -8 0 -15 4 -15 9 0 4
4 8 9 8 6 0 12 -4 15 -8z m62 -4 c3 -4 -1 -5 -10 -4 -8 1 -18 5 -22 8 -3 4 1
5 10 4 8 -1 18 -5 22 -8z m57 -7 c3 -13 0 -18 -7 -15 -7 3 -13 11 -13 19 0 22
14 18 20 -4z m-173 -21 c-6 -11 -13 -20 -16 -20 -2 0 0 9 6 20 6 11 13 20 16
20 2 0 0 -9 -6 -20z m79 8 c-1 -1 3 -12 9 -24 9 -16 8 -21 -3 -21 -7 0 -11 7
-7 15 3 9 1 13 -5 9 -6 -4 -13 0 -16 8 -4 10 -1 12 10 8 12 -5 14 -3 8 8 -4 8
-5 11 -1 7 4 -3 7 -8 5 -10z m159 -19 c-3 -8 -7 -3 -11 10 -4 17 -3 21 5 13 5
-5 8 -16 6 -23z m-271 -4 c0 -8 -4 -12 -9 -9 -5 3 -6 10 -3 15 9 13 12 11 12
-6z m198 -3 c-3 -3 -11 0 -18 7 -9 10 -8 11 6 5 10 -3 15 -9 12 -12z m-36 -19
c-12 -14 -12 -16 2 -11 9 4 16 1 16 -7 0 -7 -8 -10 -19 -7 -21 5 -23 13 -6 30
18 18 22 15 7 -5z m278 -8 c0 -22 -14 -18 -20 4 -3 13 0 18 7 15 7 -3 13 -11
13 -19z m-383 2 c-3 -8 -11 -14 -19 -14 -21 0 -19 15 3 20 9 3 18 5 19 6 1 0
0 -5 -3 -12z m17 -20 c-10 -9 -11 -8 -5 6 3 10 9 15 12 12 3 -3 0 -11 -7 -18z
m186 8 c5 -4 2 -4 -6 0 -10 6 -13 4 -9 -7 4 -8 0 -15 -8 -15 -7 0 -10 5 -7 10
4 6 0 8 -9 5 -8 -4 -15 -1 -15 6 0 13 43 14 54 1z m58 -5 c-3 -4 0 -11 5 -13
6 -3 5 -4 -1 -3 -7 1 -13 10 -15 19 -1 9 2 15 7 11 5 -3 7 -9 4 -14z m-313
-18 c-3 -10 -1 -13 6 -8 6 3 13 2 16 -2 9 -15 -43 -7 -56 8 -11 11 -9 11 6 0
18 -13 19 -13 14 1 -4 9 -1 16 7 16 8 0 11 -7 7 -15z m116 -1 c-7 -9 -13 -17
-14 -19 -1 -1 -7 4 -14 13 -11 13 -10 14 5 9 11 -5 16 -4 12 3 -3 5 0 10 8 10
12 0 12 -3 3 -16z m358 -6 c2 -12 -2 -12 -17 -5 -23 13 -25 22 -2 13 12 -5 14
-3 8 8 -5 8 -4 11 0 6 5 -4 10 -14 11 -22z m-280 -10 c-1 -8 -6 -18 -11 -22
-4 -5 -5 -2 0 6 6 11 4 13 -10 7 -15 -5 -16 -4 -5 9 16 19 29 19 26 0z m224
-8 c0 -7 -4 -6 -10 3 -9 14 -14 7 -11 -13 1 -5 -3 -6 -9 -2 -8 5 -8 11 1 21
12 15 29 10 29 -9z m-260 -32 c0 -5 -5 -3 -10 5 -5 8 -10 20 -10 25 0 6 5 3
10 -5 5 -8 10 -19 10 -25z m123 15 c-6 -21 -25 -28 -20 -7 2 10 16 26 24 27 0
0 -1 -9 -4 -20z m80 14 c-7 -3 -9 -13 -6 -22 4 -14 3 -14 -5 -2 -12 16 -7 30
11 29 9 0 9 -2 0 -5z m167 -4 c-8 -5 -19 -10 -25 -10 -5 0 -3 5 5 10 8 5 20
10 25 10 6 0 3 -5 -5 -10z m-556 -26 c3 -7 -2 -10 -15 -7 -22 6 -26 20 -4 20
8 0 16 -6 19 -13z m260 0 c3 -8 2 -12 -4 -9 -6 3 -10 10 -10 16 0 14 7 11 14
-7z m-237 -22 c0 -10 -6 -19 -13 -19 -9 0 -9 5 -1 19 7 10 13 18 14 18 1 0 1
-8 0 -18z m205 -4 c-2 -10 -6 -18 -7 -18 -1 0 -5 8 -7 18 -3 11 0 19 7 19 7 0
10 -8 7 -19z m-285 5 c-4 -3 1 -12 11 -20 15 -13 15 -13 -6 -3 -19 9 -23 30
-5 30 4 0 3 -3 0 -7z m338 -3 c-3 -5 -12 -10 -18 -10 -7 0 -6 4 3 10 19 12 23
12 15 0z m62 -23 c1 -11 1 -18 0 -16 -2 2 -8 11 -15 20 -9 12 -9 16 1 16 7 0
14 -9 14 -20z m103 12 c0 -4 -9 -7 -19 -6 -11 0 -18 4 -16 7 6 9 35 8 35 -1z
m116 -8 c1 -6 0 -7 -3 -1 -2 5 -9 8 -13 5 -5 -3 -11 -1 -14 4 -4 5 2 8 11 7 9
-2 18 -8 19 -15z m-242 -24 c-3 -8 -11 -14 -19 -14 -21 0 -19 15 3 20 9 3 18
5 19 6 1 0 0 -5 -3 -12z m-390 -27 c-6 -6 -10 -3 -10 10 0 13 4 16 10 10 7 -7
7 -13 0 -20z m59 11 c3 -13 1 -18 -9 -14 -7 2 -10 11 -7 19 7 19 10 18 16 -5z
m192 0 c-1 -8 -8 -17 -16 -19 -11 -3 -11 -1 1 7 14 10 7 16 -13 12 -5 -1 -6 2
-3 7 9 15 34 9 31 -7z m90 -3 c4 4 3 -2 -3 -14 -8 -15 -8 -24 1 -34 10 -12 9
-12 -5 -1 -10 7 -14 19 -11 28 4 11 2 14 -5 9 -8 -5 -10 -1 -5 10 5 13 3 15
-7 9 -9 -6 -11 -4 -5 5 6 10 11 10 20 -3 7 -9 16 -13 20 -9z m172 -40 c-3 -7
-5 -2 -5 12 0 14 2 19 5 13 2 -7 2 -19 0 -25z m-462 4 c-3 -3 -11 0 -18 7 -9
10 -8 11 6 5 10 -3 15 -9 12 -12z m598 -7 c-3 -9 -8 -14 -10 -11 -3 3 -2 9 2
15 9 16 15 13 8 -4z m-631 -14 c-4 -10 -1 -12 8 -6 8 5 11 4 6 -3 -8 -13 -32
-6 -39 12 -3 6 3 12 13 12 11 0 16 -5 12 -15z m78 9 c-14 -9 -6 -15 15 -10 6
1 7 -1 3 -5 -3 -4 -10 -7 -15 -7 -4 0 -17 -4 -28 -10 -20 -9 -20 -9 -1 6 11 9
16 16 12 16 -4 0 -4 5 -1 10 3 6 12 10 18 10 7 0 6 -4 -3 -10z m194 2 c2 -4 0
-14 -6 -22 -8 -12 -9 -12 -5 2 3 9 1 19 -6 22 -9 3 -9 5 0 5 6 1 14 -3 17 -7z
m102 -21 c0 -12 -6 -17 -18 -13 -10 2 -18 9 -18 14 0 5 4 7 9 3 5 -3 12 -1 16
5 9 14 11 13 11 -9z m-59 -30 c-10 -12 -9 -14 4 -9 9 4 16 1 16 -7 0 -8 -7
-11 -15 -7 -11 4 -13 1 -7 -9 4 -8 5 -11 1 -7 -4 3 -8 10 -8 15 -1 4 -8 14
-17 21 -14 11 -14 11 3 5 12 -4 17 -3 13 4 -3 5 0 10 8 10 12 0 12 -3 2 -16z
m-285 -19 c3 -11 0 -19 -7 -19 -7 0 -10 8 -7 19 2 10 6 18 7 18 1 0 5 -8 7
-18z m379 1 c13 -15 12 -15 -7 -5 -12 6 -25 8 -29 4 -5 -4 -5 -1 -1 6 10 16
21 15 37 -5z m89 7 c0 -7 -46 -7 -54 0 -2 3 9 6 25 6 16 1 29 -2 29 -6z m-330
-24 c0 -2 -7 -7 -16 -10 -8 -3 -12 -2 -9 4 6 10 25 14 25 6z m110 -15 c0 -13
-29 -8 -34 5 -3 7 2 10 15 7 10 -3 19 -9 19 -12z m-200 -26 c0 -5 -5 -3 -10 5
-5 8 -10 20 -10 25 0 6 5 3 10 -5 5 -8 10 -19 10 -25z m283 16 c3 -13 0 -18
-7 -15 -7 3 -13 11 -13 19 0 22 14 18 20 -4z m80 0 c3 -13 1 -18 -9 -14 -7 2
-10 11 -7 19 7 19 10 18 16 -5z m-410 -14 c-4 -7 1 -8 12 -3 18 6 18 6 2 -12
-9 -10 -16 -21 -15 -23 2 -2 1 -3 -2 -1 -3 2 -5 11 -5 20 0 9 -6 16 -13 14 -8
-1 -11 1 -8 6 3 5 12 9 20 9 8 0 12 -5 9 -10z m276 -1 c9 -10 8 -15 -3 -19 -9
-4 -18 -1 -22 5 -5 7 -2 8 6 3 10 -6 12 -4 7 8 -8 21 -3 22 12 3z m170 7 c-3
-21 2 -26 12 -13 8 12 10 12 7 1 -6 -21 -37 -23 -33 -2 5 22 4 21 10 21 3 0 4
-3 4 -7z m131 -3 c8 -5 11 -10 5 -10 -5 0 -17 5 -25 10 -8 5 -10 10 -5 10 6 0
17 -5 25 -10z m-397 -21 c-8 -8 -13 -7 -18 2 -5 8 -4 10 3 5 7 -4 12 -2 12 5
0 7 3 9 7 6 4 -4 2 -12 -4 -18z m-79 -1 c-3 -5 -10 -5 -16 -2 -7 5 -9 2 -6 -8
4 -8 0 -15 -7 -15 -10 0 -11 5 -5 17 5 9 16 17 24 17 8 0 13 -4 10 -9z m116
-3 c11 -13 10 -14 -5 -9 -11 5 -16 4 -12 -3 3 -5 0 -10 -7 -10 -11 0 -12 4 -3
19 14 22 12 21 27 3z m150 5 c0 -5 -4 -10 -10 -10 -5 0 -10 5 -10 10 0 6 5 10
10 10 6 0 10 -4 10 -10z m156 -5 c-1 -8 -6 -18 -11 -22 -4 -5 -5 -2 0 6 6 11
4 13 -11 8 -18 -7 -18 -7 0 8 24 18 25 18 22 0z m-203 -31 c-7 -19 -10 -18
-16 5 -3 13 -1 18 9 14 7 -2 10 -11 7 -19z m84 1 c0 -22 -14 -18 -20 4 -3 13
0 18 7 15 7 -3 13 -11 13 -19z m-244 2 c4 3 7 2 7 -4 0 -6 -8 -13 -18 -15 -12
-4 -18 1 -18 13 0 12 4 15 12 9 6 -6 14 -7 17 -3z m-113 -7 c0 -4 -6 -12 -13
-18 -10 -8 -13 -6 -13 7 0 10 6 18 13 18 7 0 13 -4 13 -7z m203 -9 c3 -13 0
-18 -7 -15 -7 3 -13 11 -13 19 0 22 14 18 20 -4z m231 -13 c-3 -4 -11 -8 -17
-7 -9 0 -9 2 0 5 7 3 9 13 6 22 -4 14 -3 14 5 2 6 -8 8 -18 6 -22z m-400 0
c-5 -8 -1 -9 12 -4 14 5 16 4 7 -5 -13 -13 -37 -3 -28 12 4 5 8 9 11 9 3 0 2
-5 -2 -12z m362 -13 c-1 -8 -6 -18 -11 -22 -4 -5 -5 -2 0 6 6 10 4 13 -7 9 -8
-4 -15 -1 -15 7 0 8 7 11 15 7 11 -4 13 -1 7 8 -5 8 -4 11 3 7 5 -4 9 -14 8
-22z m-243 -12 c-4 -11 -3 -14 5 -9 8 5 10 1 5 -10 -5 -13 -3 -15 8 -9 8 5 11
4 6 0 -14 -16 -36 -14 -30 3 5 11 3 13 -6 7 -10 -6 -11 -3 -2 12 6 11 7 24 3
28 -4 5 -2 5 5 1 7 -4 9 -14 6 -23z m168 10 c3 1 1 -2 -3 -8 -5 -5 -15 -2 -26
9 -16 18 -16 18 4 8 12 -6 23 -10 25 -9z m-306 -3 c3 -5 1 -10 -4 -10 -6 0
-11 5 -11 10 0 6 2 10 4 10 3 0 8 -4 11 -10z m65 0 c0 -5 -5 -10 -11 -10 -5 0
-7 5 -4 10 3 6 8 10 11 10 2 0 4 -4 4 -10z m115 -8 c-3 -3 -11 0 -18 7 -9 10
-8 11 6 5 10 -3 15 -9 12 -12z m59 7 c3 -3 -5 -5 -19 -5 -13 0 -22 3 -19 7 4
8 30 6 38 -2z m-7 -25 c-3 -3 -12 -4 -19 -1 -8 3 -5 6 6 6 11 1 17 -2 13 -5z
m113 -17 c0 -6 -3 -7 -7 -4 -3 4 -11 3 -17 -3 -8 -6 -12 -3 -12 9 0 12 6 17
18 13 10 -2 18 -9 18 -15z m-240 7 c0 -2 -9 -8 -20 -14 -15 -8 -18 -8 -14 3 4
11 34 21 34 11z m110 -9 c0 -2 -6 -5 -13 -8 -8 -3 -14 1 -14 8 0 7 6 11 14 8
7 -3 13 -6 13 -8z m-107 -20 c-3 -9 -8 -14 -10 -11 -3 3 -2 9 2 15 9 16 15 13
8 -4z m77 -9 c0 -3 -4 -8 -10 -11 -5 -3 -10 -1 -10 4 0 6 5 11 10 11 6 0 10
-2 10 -4z"/>
</g>
</svg>
